<svg width="21" height="20" viewBox="0 0 21 20" fill="none" xmlns="http://www.w3.org/2000/svg">
<g clip-path="url(#clip0_3_18)">
<path d="M17.175 12.8167C16.15 12.8167 15.1583 12.65 14.2333 12.35C13.9417 12.25 13.6167 12.325 13.3917 12.55L12.0833 14.1917C9.725 13.0667 7.51667 10.9417 6.34167 8.5L7.96667 7.11667C8.19167 6.88333 8.25833 6.55833 8.16667 6.26667C7.85833 5.34167 7.7 4.35 7.7 3.325C7.7 2.875 7.325 2.5 6.875 2.5H3.99167C3.54167 2.5 3 2.7 3 3.325C3 11.0667 9.44167 17.5 17.175 17.5C17.7667 17.5 18 16.975 18 16.5167V13.6417C18 13.1917 17.625 12.8167 17.175 12.8167Z" fill="black"/>
</g>
<defs>
<clipPath id="clip0_3_18">
<rect width="20" height="20" fill="white" transform="translate(0.5)"/>
</clipPath>
</defs>
</svg>
